<?xml version="1.0" encoding="utf-8"?>
<!-- Generated by IcoMoon.io -->
<!DOCTYPE svg PUBLIC "-//W3C//DTD SVG 1.1//EN" "http://www.w3.org/Graphics/SVG/1.1/DTD/svg11.dtd">
<svg version="1.1" xmlns="http://www.w3.org/2000/svg" xmlns:xlink="http://www.w3.org/1999/xlink" width="1024" height="1024" viewBox="0 0 1024 1024">
<g id="icomoon-ignore">
</g>
<path fill="#006df0" d="M512 206.805c-195.627 0-372.993 106.839-503.971 280.847-10.705 14.273-10.705 34.004 0 48.277 130.978 174.217 308.344 281.267 503.971 281.267s372.993-106.839 503.971-280.847c10.705-14.273 10.705-34.004 0-48.277-130.978-174.217-308.344-281.267-503.971-281.267zM526.063 726.938c-129.928 8.186-236.978-98.863-228.792-228.792 6.717-107.049 93.616-194.158 200.875-200.875 129.928-8.186 236.978 98.863 228.792 228.792-6.927 107.049-93.826 193.948-200.875 200.875z"></path>
<path fill="#006df0" d="M519.556 627.655c-69.897 4.408-127.62-53.315-123.212-123.212 3.568-57.723 50.376-104.53 108.099-108.099 69.897-4.408 127.62 53.315 123.212 123.212-3.568 57.723-50.376 104.53-108.099 108.099z"></path>
</svg>
