<?xml version="1.0" encoding="utf-8"?>
<!-- Generated by IcoMoon.io -->
<!DOCTYPE svg PUBLIC "-//W3C//DTD SVG 1.1//EN" "http://www.w3.org/Graphics/SVG/1.1/DTD/svg11.dtd">
<svg version="1.1" xmlns="http://www.w3.org/2000/svg" xmlns:xlink="http://www.w3.org/1999/xlink" width="1024" height="1024" viewBox="0 0 1024 1024">
<g id="icomoon-ignore">
</g>
<path fill="#000" d="M490.592 632.32c-0.832-0.576-97.088-162.4-97.408-164.48-19.904-43.488-35.968-87.968-2.496-107.712l-138.912-234.24c-36 26.912-137.824 172.96 52.768 503.936 200.768 348.8 391.84 334.304 430.144 310.688l-135.36-228.64c-32 18.816-58.944-12.192-108.736-79.552zM827.584 851.744l0.032-0.192c0 0-105.696-178.112-105.76-178.176-8.384-14.112-26.4-18.56-40.448-10.368l-64.768 38.304 135.744 229.312c0 0 64.768-38.112 64.736-38.24h0.128c14.88-8.832 18.304-27.072 10.336-40.64zM473.152 311.552v-0.128c14.88-8.8 18.368-27.040 10.4-40.48l0.064-0.192c0 0-108.736-183.328-108.8-183.36-8.352-14.176-26.432-18.56-40.416-10.368l-64.768 38.304 138.752 234.368c0 0 64.736-38.048 64.768-38.144z"></path>
</svg>
