<?xml version="1.0" encoding="utf-8"?>
<!-- Generated by IcoMoon.io -->
<!DOCTYPE svg PUBLIC "-//W3C//DTD SVG 1.1//EN" "http://www.w3.org/Graphics/SVG/1.1/DTD/svg11.dtd">
<svg version="1.1" xmlns="http://www.w3.org/2000/svg" xmlns:xlink="http://www.w3.org/1999/xlink" width="1024" height="1024" viewBox="0 0 1024 1024">
<g id="icomoon-ignore">
</g>
<path fill="#000" d="M672 798.384v0 0c19.795-20.201 32-47.867 32-78.384 0-61.856-50.144-112-112-112s-112 50.144-112 112c0 30.517 12.205 58.183 32 78.384v65.616h-256.082c-35.408 0-63.918-28.759-63.918-64.235v-735.531c0-35.488 28.776-64.235 64.273-64.235h319.727v192.061c0 35.565 28.739 63.939 64.189 63.939h159.811v544.082c0 35.408-28.617 63.918-63.918 63.918h-64.082v-65.616zM544 821.222v157.977l48-47.999 48 47.999v-157.977c-14.548 6.911-30.822 10.778-48 10.778s-33.452-3.867-48-10.778v0 0zM608 0v191.906c0 17.725 14.431 32.094 31.705 32.094h160.295l-192-224zM288 224v32h224v-32h-224zM288 128v32h224v-32h-224zM288 320v32h416v-32h-416zM288 416v32h416v-32h-416zM288 512v32h416v-32h-416zM592 800c44.183 0 80-35.817 80-80s-35.817-80-80-80c-44.183 0-80 35.817-80 80s35.817 80 80 80v0z"></path>
</svg>
