<?xml version="1.0" encoding="utf-8"?>
<!-- Generated by IcoMoon.io -->
<!DOCTYPE svg PUBLIC "-//W3C//DTD SVG 1.1//EN" "http://www.w3.org/Graphics/SVG/1.1/DTD/svg11.dtd">
<svg version="1.1" xmlns="http://www.w3.org/2000/svg" xmlns:xlink="http://www.w3.org/1999/xlink" width="423" height="448" viewBox="0 0 423 448">
<g id="icomoon-ignore">
</g>
<path fill="#000" d="M360 112c0-13.25-10.75-24-24-24s-24 10.75-24 24 10.75 24 24 24 24-10.75 24-24zM416 40c0 83-23 138.25-82.25 197.75-14.5 14.25-31 29-48.75 44l-5 94.75c-0.25 2.5-1.75 5-4 6.5l-96 56c-1.25 0.75-2.5 1-4 1-2 0-4-0.75-5.75-2.25l-16-16c-2-2.25-2.75-5.25-2-8l21.25-69-70.25-70.25-69 21.25c-0.75 0.25-1.5 0.25-2.25 0.25-2 0-4.25-0.75-5.75-2.25l-16-16c-2.5-2.75-3-6.75-1.25-9.75l56-96c1.5-2.25 4-3.75 6.5-4l94.75-5c15-17.75 29.75-34.25 44-48.75 62.5-62.25 110.25-82.25 197.25-82.25 4.5 0 8.5 3.5 8.5 8z"></path>
</svg>
