<?xml version="1.0" encoding="utf-8"?>
<!-- Generated by IcoMoon.io -->
<!DOCTYPE svg PUBLIC "-//W3C//DTD SVG 1.1//EN" "http://www.w3.org/Graphics/SVG/1.1/DTD/svg11.dtd">
<svg version="1.1" xmlns="http://www.w3.org/2000/svg" xmlns:xlink="http://www.w3.org/1999/xlink" width="416" height="512" viewBox="0 0 416 512">
<g id="icomoon-ignore">
</g>
<path d="M233.349 49.55c-114.019-13.999-217.798 67.082-231.798 181.101s67.082 217.799 181.1 231.798c35.715 4.378 72.558-0.457 106.662-14.973l-0.008-0.016c12.202-5.178 17.894-19.269 12.716-31.469-5.18-12.202-19.269-17.894-31.47-12.715l-0-0.002c-26.236 11.169-54.575 14.899-82.050 11.534-87.707-10.769-150.077-90.6-139.308-178.306s90.6-150.077 178.306-139.308c87.706 10.769 150.077 90.6 139.309 178.306-2.154 17.541-10.771 27.863-30.8 27.863-21.25 0-32-22.945-32-40.611v-62.75c0-13.255-10.745-24-24-24-4.849 0-9.36 1.444-13.135 3.917-12.842-10.13-28.719-16.935-47.174-19.201-52.623-6.462-100.522 30.962-106.984 83.585s30.962 100.522 83.585 106.983c28.69 3.522 58.108-7.353 78.936-26.565 12.479 14.062 29.933 23.812 50.060 26.284 43.853 5.385 83.769-25.801 89.154-69.654 14-114.018-67.082-217.798-181.101-231.798zM255.643 261.849c-3.231 26.312-27.18 45.024-53.493 41.793s-45.023-27.18-41.792-53.492c3.231-26.311 27.18-45.023 53.492-41.792s45.023 27.18 41.793 53.492z"></path>
</svg>
