<?xml version="1.0" encoding="utf-8"?>
<!-- Generated by IcoMoon.io -->
<!DOCTYPE svg PUBLIC "-//W3C//DTD SVG 1.1//EN" "http://www.w3.org/Graphics/SVG/1.1/DTD/svg11.dtd">
<svg version="1.1" xmlns="http://www.w3.org/2000/svg" xmlns:xlink="http://www.w3.org/1999/xlink" width="1024" height="1024" viewBox="0 0 1024 1024">
<g id="icomoon-ignore">
</g>
<path d="M512 640q52 0 90-38t38-90-38-90-90-38-90 38-38 90 38 90 90 38zM512 86q176 0 301 125t125 301v62q0 64-43 108t-105 44q-78 0-126-64-64 64-152 64t-151-63-63-151 63-151 151-63 151 63 63 151v62q0 26 19 46t45 20 45-20 19-46v-62q0-140-101-241t-241-101-241 101-101 241 101 241 241 101h214v84h-214q-176 0-301-125t-125-301 125-301 301-125z"></path>
</svg>
