<svg style="position: absolute; width: 0; height: 0; overflow: hidden;" version="1.1" xmlns="http://www.w3.org/2000/svg" xmlns:xlink="http://www.w3.org/1999/xlink">
<defs>
<symbol id="icon-learning" viewBox="0 0 32 32">
<title>learning</title>
<path class="path1" fill="#ffffff" d="M19.409 23.765c-0.854-0.573-8.167-5.554-10.138-9.040l-0.108-0.192-0.222-0.008c-1.697-0.069-3.017 0.913-3.582 1.42-0.231-0.234-0.466-0.474-0.706-0.722l-0.286-0.294-0.284 0.296c-1.113 1.155-1.605 2.229-1.464 3.197 0.114 0.786 0.651 1.47 1.554 1.981 0.163 0.092 2.046 1.373 4.092 3.008-0.354 0.361-1.639 1.193-2.104 1.524-0.523 0.371-2.704 2.351-2.704 2.351l1.409 0.333 0.488 0.953c0 0 0.669-1.639 1.404-2.447s2.017-1.455 2.017-1.455-0.693 0.99-1.191 1.951c-0.496 0.961-0.623 2.627-0.623 2.627l0.861-0.273 0.594 1.295c0 0 0.158-1.83 0.523-3.021 0.295-0.964 1.018-1.878 1.286-2.198 2.595 2.285 5.307 5.044 5.849 5.601 0.327 0.376 0.751 0.652 1.303 0.775 0.197 0.043 0.398 0.064 0.593 0.064 1.122 0 2.188-0.7 2.874-1.925 0.801-1.426 1.027-3.618-0.364-5.058-0.381-0.398-0.742-0.623-1.069-0.742zM8.405 22.509c-1.878-1.477-3.591-2.653-3.841-2.795-0.691-0.391-1.082-0.864-1.16-1.406-0.092-0.636 0.235-1.385 0.974-2.23 1.837 1.88 3.407 3.372 4.741 4.558-0.603 0.979-0.709 1.504-0.713 1.873zM9.571 19.975c-1.058-0.941-2.27-2.081-3.651-3.464 0.469-0.41 1.5-1.164 2.777-1.195 0.667 1.094 1.773 2.295 3.019 3.458-0.648 0.066-1.458 0.349-2.145 1.201zM10.378 24.132c0.067-0.508 0.225-1.207 0.579-1.928 2.335 1.902 3.661 2.597 4.241 2.842-0.090 0.669-0.242 2.211 0.022 3.621-1.254-1.24-3.097-3.021-4.842-4.535zM20.154 29.18c-0.494 0.88-1.437 1.731-2.605 1.473-2.005-0.443-1.775-4.338-1.517-5.801l0.065-0.37-0.368-0.086c-0.016-0.004-1.263-0.355-4.345-2.871 0.579-0.674 1.506-0.975 2.211-1.108 1.74 1.445 3.473 2.693 4.509 3.416-0.031 0.016-0.061 0.030-0.087 0.047-1.194 0.678-1.692 2.638-1.433 3.577 0.304 1.105 1.042 1.814 1.818 1.799 0.331-0.013 1.139-0.199 1.434-1.674l0.046-0.23-0.177-0.15c-1.12-0.954-1.727-1.517-2.016-1.799 0.185-0.359 0.428-0.67 0.721-0.836 0.444-0.25 0.948-0.086 1.503 0.49 1.107 1.152 0.901 2.946 0.241 4.124zM19.004 27.651c-0.138 0.503-0.37 0.805-0.634 0.812-0.003 0-0.007 0-0.013 0-0.329 0-0.792-0.421-1.011-1.216-0.070-0.254-0.050-0.633 0.044-1.027 0.328 0.307 0.841 0.771 1.613 1.431z"></path>
<path class="path2" fill="#ffffff" d="M6.251 9.033l-1.255 4.019c0 0 5.128 0.498 9.397 1.83 4.272 1.334 8.771 3.843 8.771 3.843l1.276-4.090c0 0-3.832-3.863-8.397-5.287-4.562-1.424-9.793-0.314-9.793-0.314z"></path>
<path class="path3" fill="#ffffff" d="M32 14.695l-1.493-1.566 0.147-0.475c0 0 1.316-2.419-1.997-1.972-0.172 0.034-0.275 0.089-0.333 0.158l-9.858-10.334-18.466 4.076 5.078 4.536 0.273-0.874c0 0 5.834-1.237 10.921 0.35 5.088 1.589 9.362 5.896 9.362 5.896l-0.475 1.524 3.814-0.736c-0.636 2.033-1.366 4.376-1.593 5.1l-1.086-0.34-0.789 2.524 1.758-0.548 1.292 1.501 0.787-2.524-1.174-0.368 1.725-5.524 2.108-0.404zM29.814 14.13c-0.131 0.422-0.58 0.657-1.002 0.526-0.422-0.132-0.658-0.58-0.527-1.002 0.133-0.422 0.582-0.657 1.003-0.526s0.657 0.581 0.526 1.002zM29.069 11.62c0.416-0.124 1.124-0.252 0.936 0.35-0.019 0.059-0.070 0.229-0.15 0.475l-0.786-0.826z"></path>
</symbol>
<symbol id="icon-pencil" viewBox="0 0 32 32">
<title>pencil</title>
<path class="path1" fill="#ffffff" d="M5.306 9.659h13.011c0.515 0 0.933-0.418 0.933-0.933s-0.418-0.933-0.933-0.933h-13.011c-0.515 0-0.933 0.418-0.933 0.933s0.418 0.933 0.933 0.933z"></path>
<path class="path2" fill="#ffffff" d="M5.306 12.864h13.011c0.515 0 0.933-0.418 0.933-0.933s-0.418-0.933-0.933-0.933h-13.011c-0.515 0-0.933 0.418-0.933 0.933s0.418 0.933 0.933 0.933z"></path>
<path class="path3" fill="#ffffff" d="M12.189 23.816h-6.883c-0.515 0-0.933 0.418-0.933 0.933s0.418 0.933 0.933 0.933h6.883c0.515 0 0.933-0.418 0.933-0.933s-0.417-0.933-0.933-0.933z"></path>
<path class="path4" fill="#ffffff" d="M31.547 2.786l-2.742-1.645c-0.212-0.127-0.466-0.165-0.706-0.105s-0.446 0.213-0.574 0.425l-4.774 7.956v-5.639c0-0.515-0.418-0.933-0.933-0.933h-20.886c-0.515 0-0.933 0.418-0.933 0.933v26.281c0 0.515 0.418 0.933 0.933 0.933h20.886c0.515 0 0.933-0.418 0.933-0.933v-10.801l9.116-15.192c0.265-0.442 0.122-1.014-0.32-1.28zM19.502 21.049l-1.548 1.285 0.405-1.97 8.948-14.912 1.143 0.686-8.948 14.912zM29.409 4.537l-1.143-0.686 0.379-0.631 1.143 0.686-0.379 0.631zM1.865 29.127v-24.416h19.020v7.815l-1.647 2.745c0.007-0.045 0.011-0.090 0.011-0.136 0-0.515-0.418-0.933-0.933-0.933h-13.011c-0.515 0-0.933 0.418-0.933 0.933s0.418 0.933 0.933 0.933h13.011c0.208 0 0.399-0.069 0.554-0.183l-0.914 1.522h-12.652c-0.515 0-0.933 0.418-0.933 0.933s0.418 0.933 0.933 0.933h11.532l-0.16 0.267c-0.054 0.090-0.093 0.189-0.114 0.292l-0.16 0.78h-11.098c-0.515 0-0.933 0.418-0.933 0.933s0.418 0.933 0.933 0.933h10.714l-0.429 2.084c-0.080 0.388 0.094 0.784 0.434 0.988 0.148 0.089 0.314 0.133 0.48 0.133 0.213 0 0.424-0.073 0.596-0.215l3.715-3.084c0.025-0.021 0.048-0.046 0.071-0.069v6.813h-19.020z"></path>
</symbol>
<symbol id="icon-progress-skills" viewBox="0 0 32 32">
<title>progress-skills</title>
<path class="path1" fill="#ffffff" d="M31.398 12.705c-0.845-4.683-2.387-8.536-3.232-10.416-0.443-0.987-1.432-1.615-2.513-1.597l-9.217 0.145c-0.996 0.016-1.927 0.559-2.431 1.418-0.57 0.971-0.518 2.193 0.133 3.112l2.106 2.974c0.737 1.040 2.075 1.43 3.256 0.946l2.982-1.221c0.136 0.833-0.009 1.642-0.434 2.412-1.062 1.922-1.623 4.009-1.643 6.078-0.684-0.477-1.386-0.869-2.104-1.175-1.532-0.652-3.135-0.911-4.765-0.772-0.357 0.030-0.698 0.079-1.023 0.139-1.717-4.497-4.88-5.872-7.264-6.225-2.629-0.39-4.833 0.344-4.926 0.375-0.248 0.084-0.381 0.353-0.297 0.601s0.353 0.381 0.602 0.298c0.021-0.007 2.108-0.696 4.515-0.33 3.022 0.459 5.185 2.31 6.437 5.5-1.661 0.468-2.702 1.191-2.76 1.232-0.214 0.151-0.265 0.447-0.114 0.662s0.447 0.265 0.662 0.114c0.017-0.012 1.734-1.206 4.25-1.42 1.474-0.126 2.925 0.11 4.313 0.7 1.754 0.746 3.417 2.065 4.943 3.921 0.094 0.114 0.23 0.173 0.367 0.173 0.106 0 0.213-0.035 0.301-0.108 0.202-0.167 0.232-0.466 0.065-0.668-0.715-0.87-1.462-1.63-2.235-2.277l-0.004-0.072c-0.109-2.124 0.414-4.298 1.513-6.286 0.569-1.030 0.736-2.118 0.5-3.238l1.456-0.596c0.243-0.099 0.359-0.377 0.259-0.619s-0.377-0.359-0.619-0.259l-5.335 2.185c-0.769 0.315-1.641 0.061-2.121-0.617l-2.106-2.974c-0.436-0.615-0.471-1.433-0.089-2.083 0.337-0.575 0.961-0.938 1.627-0.949l9.217-0.145c0.705-0.011 1.344 0.396 1.632 1.037 0.826 1.84 2.336 5.612 3.163 10.196 0.988 5.474 0.728 10.449-0.772 14.79-5.021 2.011-9.33 2.882-13.167 2.663-2.607-0.149-5.009-0.815-7.139-1.98-2.393-1.309-4.512-3.287-6.302-5.878 1.016-0.346 2.043-0.288 2.061-0.286 0.262 0.017 0.487-0.18 0.505-0.441s-0.18-0.488-0.441-0.506c-0.040-0.003-0.986-0.063-2.048 0.216-1.472 0.387-2.454 1.238-2.842 2.461-0.079 0.25 0.059 0.517 0.309 0.596 0.048 0.015 0.096 0.022 0.143 0.022 0.201 0 0.388-0.129 0.452-0.331 0.188-0.593 0.556-1.012 0.995-1.309 3.567 5.227 8.361 8.049 14.251 8.386 0.403 0.023 0.81 0.035 1.223 0.035 3.716-0 7.838-0.936 12.553-2.845 0.126-0.051 0.224-0.153 0.269-0.281 1.618-4.546 1.915-9.754 0.882-15.478z"></path>
</symbol>
<symbol id="icon-eye" viewBox="0 0 32 32">
<title>eye</title>
<path class="path1" fill="#006df0" d="M16 6.463c-6.113 0-11.656 3.339-15.749 8.776-0.335 0.446-0.335 1.063 0 1.509 4.093 5.444 9.636 8.79 15.749 8.79s11.656-3.339 15.749-8.776c0.335-0.446 0.335-1.063 0-1.509-4.093-5.444-9.636-8.79-15.749-8.79zM16.439 22.717c-4.060 0.256-7.406-3.089-7.15-7.15 0.21-3.345 2.925-6.067 6.277-6.277 4.060-0.256 7.406 3.089 7.15 7.15-0.216 3.345-2.932 6.061-6.277 6.277z"></path>
<path class="path2" fill="#006df0" d="M16.236 19.614c-2.184 0.138-3.988-1.666-3.85-3.85 0.111-1.804 1.574-3.267 3.378-3.378 2.184-0.138 3.988 1.666 3.85 3.85-0.111 1.804-1.574 3.267-3.378 3.378z"></path>
</symbol>
<symbol id="icon-location" viewBox="0 0 32 32">
<title>location</title>
<path class="path1" d="M16 15.313q1.375 0 2.344-0.969t0.969-2.344-0.969-2.344-2.344-0.969-2.344 0.969-0.969 2.344 0.969 2.344 2.344 0.969zM16 2.688q3.875 0 6.594 2.719t2.719 6.594q0 1.938-0.969 4.438t-2.344 4.688-2.719 4.094-2.281 3.031l-1 1.063q-0.375-0.438-1-1.156t-2.25-2.875-2.844-4.188-2.219-4.594-1-4.5q0-3.875 2.719-6.594t6.594-2.719z"></path>
</symbol>
<symbol id="icon-mail" viewBox="0 0 32 32">
<title>mail</title>
<path class="path1" d="M16 20q1.625 0 2.813-1.188t1.188-2.813-1.188-2.813-2.813-1.188-2.813 1.188-1.188 2.813 1.188 2.813 2.813 1.188zM16 2.688q5.5 0 9.406 3.906t3.906 9.406v1.938q0 2-1.344 3.375t-3.281 1.375q-2.438 0-3.938-2-2 2-4.75 2t-4.719-1.969-1.969-4.719 1.969-4.719 4.719-1.969 4.719 1.969 1.969 4.719v1.938q0 0.813 0.594 1.438t1.406 0.625 1.406-0.625 0.594-1.438v-1.938q0-4.375-3.156-7.531t-7.531-3.156-7.531 3.156-3.156 7.531 3.156 7.531 7.531 3.156h6.688v2.625h-6.688q-5.5 0-9.406-3.906t-3.906-9.406 3.906-9.406 9.406-3.906z"></path>
</symbol>
<symbol id="icon-phone" viewBox="0 0 32 32">
<title>phone</title>
<path class="path1" d="M8.813 14.375q3 5.813 8.813 8.813l2.938-2.938q0.625-0.625 1.375-0.313 2.25 0.75 4.75 0.75 0.563 0 0.938 0.375t0.375 0.938v4.688q0 0.563-0.375 0.938t-0.938 0.375q-9.375 0-16.031-6.656t-6.656-16.031q0-0.563 0.375-0.938t0.938-0.375h4.688q0.563 0 0.938 0.375t0.375 0.938q0 2.5 0.75 4.75 0.25 0.813-0.313 1.375z"></path>
</symbol>
</defs>
</svg>
