<svg style="position: absolute; width: 0; height: 0; overflow: hidden;" version="1.1" xmlns="http://www.w3.org/2000/svg" xmlns:xlink="http://www.w3.org/1999/xlink">
<defs>
<symbol id="icon-eye" viewBox="0 0 32 32">
<title>eye</title>
<path class="path1" fill="#006df0" d="M16 6.463c-6.113 0-11.656 3.339-15.749 8.776-0.335 0.446-0.335 1.063 0 1.509 4.093 5.444 9.636 8.79 15.749 8.79s11.656-3.339 15.749-8.776c0.335-0.446 0.335-1.063 0-1.509-4.093-5.444-9.636-8.79-15.749-8.79zM16.439 22.717c-4.060 0.256-7.406-3.089-7.15-7.15 0.21-3.345 2.925-6.067 6.277-6.277 4.060-0.256 7.406 3.089 7.15 7.15-0.216 3.345-2.932 6.061-6.277 6.277z"></path>
<path class="path2" fill="#006df0" d="M16.236 19.614c-2.184 0.138-3.988-1.666-3.85-3.85 0.111-1.804 1.574-3.267 3.378-3.378 2.184-0.138 3.988 1.666 3.85 3.85-0.111 1.804-1.574 3.267-3.378 3.378z"></path>
</symbol>
<symbol id="icon-location" viewBox="0 0 32 32">
<title>location</title>
<path class="path1" d="M16 15.313q1.375 0 2.344-0.969t0.969-2.344-0.969-2.344-2.344-0.969-2.344 0.969-0.969 2.344 0.969 2.344 2.344 0.969zM16 2.688q3.875 0 6.594 2.719t2.719 6.594q0 1.938-0.969 4.438t-2.344 4.688-2.719 4.094-2.281 3.031l-1 1.063q-0.375-0.438-1-1.156t-2.25-2.875-2.844-4.188-2.219-4.594-1-4.5q0-3.875 2.719-6.594t6.594-2.719z"></path>
</symbol>
<symbol id="icon-mail" viewBox="0 0 32 32">
<title>mail</title>
<path class="path1" d="M16 20q1.625 0 2.813-1.188t1.188-2.813-1.188-2.813-2.813-1.188-2.813 1.188-1.188 2.813 1.188 2.813 2.813 1.188zM16 2.688q5.5 0 9.406 3.906t3.906 9.406v1.938q0 2-1.344 3.375t-3.281 1.375q-2.438 0-3.938-2-2 2-4.75 2t-4.719-1.969-1.969-4.719 1.969-4.719 4.719-1.969 4.719 1.969 1.969 4.719v1.938q0 0.813 0.594 1.438t1.406 0.625 1.406-0.625 0.594-1.438v-1.938q0-4.375-3.156-7.531t-7.531-3.156-7.531 3.156-3.156 7.531 3.156 7.531 7.531 3.156h6.688v2.625h-6.688q-5.5 0-9.406-3.906t-3.906-9.406 3.906-9.406 9.406-3.906z"></path>
</symbol>
<symbol id="icon-minus" viewBox="0 0 32 32">
<title>minus</title>
<path class="path1" fill="#2b98d4" d="M29 13h-26c-1.657 0-3 1.343-3 3s1.343 3 3 3h26c1.657 0 3-1.343 3-3s-1.343-3-3-3z"></path>
</symbol>
<symbol id="icon-phone" viewBox="0 0 32 32">
<title>phone</title>
<path class="path1" d="M8.813 14.375q3 5.813 8.813 8.813l2.938-2.938q0.625-0.625 1.375-0.313 2.25 0.75 4.75 0.75 0.563 0 0.938 0.375t0.375 0.938v4.688q0 0.563-0.375 0.938t-0.938 0.375q-9.375 0-16.031-6.656t-6.656-16.031q0-0.563 0.375-0.938t0.938-0.375h4.688q0.563 0 0.938 0.375t0.375 0.938q0 2.5 0.75 4.75 0.25 0.813-0.313 1.375z"></path>
</symbol>
<symbol id="icon-plus" viewBox="0 0 32 32">
<title>plus</title>
<path class="path1" fill="#2b98d4" d="M30.145 14.145h-12.29v-12.289c0-1.023-0.831-1.856-1.855-1.856s-1.855 0.832-1.855 1.855v12.29h-12.29c-1.024 0-1.855 0.832-1.855 1.855 0 1.026 0.831 1.855 1.855 1.855h12.29v12.289c0 1.027 0.831 1.855 1.855 1.855s1.855-0.829 1.855-1.855v-12.289h12.29c1.025 0 1.855-0.829 1.855-1.855 0-1.023-0.831-1.855-1.855-1.855z"></path>
</symbol>
<symbol id="icon-student" viewBox="0 0 32 32">
<title>student</title>
<path class="path1" d="M16 4l-14.667 8 14.667 8 14.667-8z"></path>
<path class="path2" d="M25.333 17.067l-9.333 5.6-9.333-5.6v5.867l9.333 5.067 9.333-5.067z"></path>
<path class="path3" d="M28 12h2.667v10.667h-2.667v-10.667z"></path>
</symbol>
<symbol id="icon-uniF041" viewBox="0 0 18 32">
<title>uniF041</title>
<path class="path1" d="M13.714 11.429q0-1.893-1.339-3.232t-3.232-1.339-3.232 1.339-1.339 3.232 1.339 3.232 3.232 1.339 3.232-1.339 1.339-3.232zM18.286 11.429q0 1.946-0.589 3.196l-6.5 13.821q-0.286 0.589-0.848 0.929t-1.205 0.339-1.205-0.339-0.83-0.929l-6.518-13.821q-0.589-1.25-0.589-3.196 0-3.786 2.679-6.464t6.464-2.679 6.464 2.679 2.679 6.464z"></path>
</symbol>
<symbol id="icon-uniF044" viewBox="0 0 32 32">
<title>uniF044</title>
<path class="path1" d="M15.857 21.143l2.071-2.071-2.714-2.714-2.071 2.071v1h1.714v1.714h1zM23.714 8.286q-0.286-0.286-0.589 0.018l-6.25 6.25q-0.304 0.304-0.018 0.589t0.589-0.018l6.25-6.25q0.304-0.304 0.018-0.589zM25.143 18.893v3.393q0 2.125-1.509 3.634t-3.634 1.509h-14.857q-2.125 0-3.634-1.509t-1.509-3.634v-14.857q0-2.125 1.509-3.634t3.634-1.509h14.857q1.125 0 2.089 0.446 0.268 0.125 0.321 0.411 0.054 0.304-0.161 0.518l-0.875 0.875q-0.25 0.25-0.571 0.143-0.411-0.107-0.804-0.107h-14.857q-1.179 0-2.018 0.839t-0.839 2.018v14.857q0 1.179 0.839 2.018t2.018 0.839h14.857q1.179 0 2.018-0.839t0.839-2.018v-2.25q0-0.232 0.161-0.393l1.143-1.143q0.268-0.268 0.625-0.125t0.357 0.518zM23.429 5.714l5.143 5.143-12 12h-5.143v-5.143zM31.357 8.071l-1.643 1.643-5.143-5.143 1.643-1.643q0.5-0.5 1.214-0.5t1.214 0.5l2.714 2.714q0.5 0.5 0.5 1.214t-0.5 1.214z"></path>
</symbol>
<symbol id="icon-uniF067" viewBox="0 0 25 32">
<title>uniF067</title>
<path class="path1" d="M25.143 13.143v3.429q0 0.714-0.5 1.214t-1.214 0.5h-7.429v7.429q0 0.714-0.5 1.214t-1.214 0.5h-3.429q-0.714 0-1.214-0.5t-0.5-1.214v-7.429h-7.429q-0.714 0-1.214-0.5t-0.5-1.214v-3.429q0-0.714 0.5-1.214t1.214-0.5h7.429v-7.429q0-0.714 0.5-1.214t1.214-0.5h3.429q0.714 0 1.214 0.5t0.5 1.214v7.429h7.429q0.714 0 1.214 0.5t0.5 1.214z"></path>
</symbol>
<symbol id="icon-uniF068" viewBox="0 0 25 32">
<title>uniF068</title>
<path class="path1" d="M25.143 13.143v3.429q0 0.714-0.5 1.214t-1.214 0.5h-21.714q-0.714 0-1.214-0.5t-0.5-1.214v-3.429q0-0.714 0.5-1.214t1.214-0.5h21.714q0.714 0 1.214 0.5t0.5 1.214z"></path>
</symbol>
<symbol id="icon-uniF06E" viewBox="0 0 32 32">
<title>uniF06E</title>
<path class="path1" d="M29.714 17.143q-2.714-4.214-6.804-6.304 1.089 1.857 1.089 4.018 0 3.304-2.348 5.652t-5.652 2.348-5.652-2.348-2.348-5.652q0-2.161 1.089-4.018-4.089 2.089-6.804 6.304 2.375 3.661 5.955 5.83t7.759 2.17 7.759-2.17 5.955-5.83zM16.857 10.286q0-0.357-0.25-0.607t-0.607-0.25q-2.232 0-3.83 1.598t-1.598 3.83q0 0.357 0.25 0.607t0.607 0.25 0.607-0.25 0.25-0.607q0-1.536 1.089-2.625t2.625-1.089q0.357 0 0.607-0.25t0.25-0.607zM32 17.143q0 0.607-0.357 1.232-2.5 4.107-6.723 6.58t-8.92 2.473-8.92-2.482-6.723-6.571q-0.357-0.625-0.357-1.232t0.357-1.232q2.5-4.089 6.723-6.571t8.92-2.482 8.92 2.482 6.723 6.571q0.357 0.625 0.357 1.232z"></path>
</symbol>
<symbol id="icon-uniF095" viewBox="0 0 25 32">
<title>uniF095</title>
<path class="path1" d="M25.143 22.143q0 0.482-0.179 1.259t-0.375 1.223q-0.375 0.893-2.179 1.893-1.679 0.911-3.321 0.911-0.482 0-0.938-0.063t-1.027-0.223-0.848-0.259-0.991-0.366-0.875-0.321q-1.75-0.625-3.125-1.482-2.286-1.411-4.723-3.848t-3.848-4.723q-0.857-1.375-1.482-3.125-0.054-0.161-0.321-0.875t-0.366-0.991-0.259-0.848-0.223-1.027-0.063-0.938q0-1.643 0.911-3.321 1-1.804 1.893-2.179 0.446-0.196 1.223-0.375t1.259-0.179q0.25 0 0.375 0.054 0.321 0.107 0.946 1.357 0.196 0.339 0.536 0.964t0.625 1.134 0.554 0.955q0.054 0.071 0.313 0.446t0.384 0.634 0.125 0.509q0 0.357-0.509 0.893t-1.107 0.982-1.107 0.946-0.509 0.821q0 0.161 0.089 0.402t0.152 0.366 0.25 0.429 0.205 0.339q1.357 2.446 3.107 4.196t4.196 3.107q0.036 0.018 0.339 0.205t0.429 0.25 0.366 0.152 0.402 0.089q0.321 0 0.821-0.509t0.946-1.107 0.982-1.107 0.893-0.509q0.25 0 0.509 0.125t0.634 0.384 0.446 0.313q0.446 0.268 0.955 0.554t1.134 0.625 0.964 0.536q1.25 0.625 1.357 0.946 0.054 0.125 0.054 0.375z"></path>
</symbol>
<symbol id="icon-uniF0E0" viewBox="0 0 32 32">
<title>uniF0E0</title>
<path class="path1" d="M32 12.679v14.179q0 1.179-0.839 2.018t-2.018 0.839h-26.286q-1.179 0-2.018-0.839t-0.839-2.018v-14.179q0.786 0.875 1.804 1.554 6.464 4.393 8.875 6.161 1.018 0.75 1.652 1.17t1.688 0.857 1.964 0.438h0.036q0.911 0 1.964-0.438t1.688-0.857 1.652-1.17q3.036-2.196 8.893-6.161 1.018-0.696 1.786-1.554zM32 7.429q0 1.411-0.875 2.696t-2.179 2.196q-6.714 4.661-8.357 5.804-0.179 0.125-0.759 0.545t-0.964 0.679-0.929 0.58-1.027 0.482-0.893 0.161h-0.036q-0.411 0-0.893-0.161t-1.027-0.482-0.929-0.58-0.964-0.679-0.759-0.545q-1.625-1.143-4.679-3.259t-3.661-2.545q-1.107-0.75-2.089-2.063t-0.982-2.438q0-1.393 0.741-2.321t2.116-0.929h26.286q1.161 0 2.009 0.839t0.848 2.018z"></path>
</symbol>
</defs>
</svg>
