<svg xmlns="http://www.w3.org/2000/svg"><symbol id="icon-document-certificate" viewBox="0 0 1024 1024"><path d="M672 798.384c19.795-20.201 32-47.867 32-78.384 0-61.856-50.144-112-112-112s-112 50.144-112 112c0 30.517 12.205 58.183 32 78.384V864H255.918C220.51 864 192 835.241 192 799.765V64.234c0-35.488 28.776-64.235 64.273-64.235H576V192.06c0 35.565 28.739 63.939 64.189 63.939H800v544.082c0 35.408-28.617 63.918-63.918 63.918H672v-65.616zm-128 22.838v157.977l48-47.999 48 47.999V821.222C625.452 828.133 609.178 832 592 832s-33.452-3.867-48-10.778zM608 0v191.906C608 209.631 622.431 224 639.705 224H800L608 0zM288 224v32h224v-32H288zm0-96v32h224v-32H288zm0 192v32h416v-32H288zm0 96v32h416v-32H288zm0 96v32h416v-32H288zm304 288c44.183 0 80-35.817 80-80s-35.817-80-80-80-80 35.817-80 80 35.817 80 80 80z"/></symbol><symbol id="icon-document-file-pdf" viewBox="0 0 1024 1024"><path d="M672 832v64.082C672 931.49 643.383 960 608.082 960H127.917c-35.408 0-63.918-28.759-63.918-64.235V160.234c0-35.488 28.776-64.235 64.273-64.235h319.727V288.06c0 35.565 28.739 63.939 64.189 63.939h159.811v64H384.218c-53.14 0-96.219 42.952-96.219 95.961v224.078c0 52.998 42.752 95.961 96.219 95.961h287.781zM480 96v191.906C480 305.631 494.431 320 511.705 320H672L480 96zm-96.174 352h544.348C963.125 448 992 476.539 992 511.745v224.511c0 34.939-28.576 63.745-63.826 63.745H383.826c-34.951 0-63.826-28.539-63.826-63.745V511.745C320 476.806 348.576 448 383.826 448zM800 608v-64h128v-32H768v224h32v-96h96v-32h-96zm-416-32v160h32v-96h63.844C515.276 640 544 611.593 544 576c0-35.346-28.605-64-64.156-64H384v64zm32-32v64h64.033C497.688 608 512 593.796 512 576c0-17.673-14.165-32-31.967-32H416zm160-32v224h95.844C707.276 736 736 707.63 736 671.811V576.19c0-35.451-28.605-64.189-64.156-64.189H576zm32 32v160h64.033A31.9 31.9 0 0 0 704 672.006v-96.012c0-17.67-14.165-31.994-31.967-31.994H608z"/></symbol><symbol id="icon-equalizer" viewBox="0 0 512 512"><path d="M224 64v-8c0-13.2-10.8-24-24-24h-80c-13.2 0-24 10.8-24 24v8H0v64h96v8c0 13.2 10.8 24 24 24h80c13.2 0 24-10.8 24-24v-8h288V64H224zm-96 64V64h64v64h-64zm288 88c0-13.2-10.8-24-24-24h-80c-13.2 0-24 10.8-24 24v8H0v64h288v8c0 13.2 10.8 24 24 24h80c13.2 0 24-10.8 24-24v-8h96v-64h-96v-8zm-96 72v-64h64v64h-64zm-96 88c0-13.2-10.8-24-24-24h-80c-13.2 0-24 10.8-24 24v8H0v64h96v8c0 13.2 10.8 24 24 24h80c13.2 0 24-10.8 24-24v-8h288v-64H224v-8zm-96 72v-64h64v64h-64z"/></symbol><symbol id="icon-eye" viewBox="0 0 1024 1024"><path fill="#006df0" d="M512 206.805c-195.627 0-372.993 106.839-503.971 280.847-10.705 14.273-10.705 34.004 0 48.277C139.007 710.146 316.373 817.196 512 817.196s372.993-106.839 503.971-280.847c10.705-14.273 10.705-34.004 0-48.277C884.993 313.855 707.627 206.805 512 206.805zm14.063 520.133c-129.928 8.186-236.978-98.863-228.792-228.792 6.717-107.049 93.616-194.158 200.875-200.875 129.928-8.186 236.978 98.863 228.792 228.792-6.927 107.049-93.826 193.948-200.875 200.875z"/><path fill="#006df0" d="M519.556 627.655c-69.897 4.408-127.62-53.315-123.212-123.212 3.568-57.723 50.376-104.53 108.099-108.099 69.897-4.408 127.62 53.315 123.212 123.212-3.568 57.723-50.376 104.53-108.099 108.099z"/></symbol><symbol id="icon-location" viewBox="0 0 512 512"><path d="M256 0C167.634 0 96 71.634 96 160c0 160 160 352 160 352s160-192 160-352C416 71.634 344.365 0 256 0zm0 258c-54.124 0-98-43.876-98-98s43.876-98 98-98 98 43.876 98 98-43.876 98-98 98zm-62-98c0-34.242 27.758-62 62-62s62 27.758 62 62c0 34.242-27.759 62-62 62s-62-27.758-62-62z"/></symbol><symbol id="icon-mail-envelope-closed" viewBox="0 0 1024 1024"><path d="M226.462 349.538l25.846-25.846L528 560l275.692-236.308 25.846 25.846L528 608 226.462 349.538zM192.115 256C156.705 256 128 284.624 128 319.81v384.38c0 35.241 28.472 63.81 64.115 63.81h671.77c35.41 0 64.115-28.624 64.115-63.81V319.81c0-35.241-28.472-63.81-64.115-63.81h-671.77z"/></symbol><symbol id="icon-mention" viewBox="0 0 416 512"><path d="M233.349 49.55C119.33 35.551 15.551 116.632 1.551 230.651s67.082 217.799 181.1 231.798c35.715 4.378 72.558-.457 106.662-14.973l-.008-.016c12.202-5.178 17.894-19.269 12.716-31.469-5.18-12.202-19.269-17.894-31.47-12.715v-.002c-26.236 11.169-54.575 14.899-82.05 11.534-87.707-10.769-150.077-90.6-139.308-178.306s90.6-150.077 178.306-139.308c87.706 10.769 150.077 90.6 139.309 178.306-2.154 17.541-10.771 27.863-30.8 27.863-21.25 0-32-22.945-32-40.611v-62.75c0-13.255-10.745-24-24-24a23.89 23.89 0 0 0-13.135 3.917c-12.842-10.13-28.719-16.935-47.174-19.201-52.623-6.462-100.522 30.962-106.984 83.585s30.962 100.522 83.585 106.983c28.69 3.522 58.108-7.353 78.936-26.565 12.479 14.062 29.933 23.812 50.06 26.284 43.853 5.385 83.769-25.801 89.154-69.654 14-114.018-67.082-217.798-181.101-231.798zm22.294 212.299c-3.231 26.312-27.18 45.024-53.493 41.793s-45.023-27.18-41.792-53.492c3.231-26.311 27.18-45.023 53.492-41.792s45.023 27.18 41.793 53.492z"/></symbol><symbol id="icon-minus" viewBox="0 0 612 612"><path d="M554.625 248.625H57.375C25.685 248.625 0 274.31 0 306s25.685 57.375 57.375 57.375h497.25C586.315 363.375 612 337.69 612 306s-25.685-57.375-57.375-57.375z" fill="#2b98d4"/></symbol><symbol id="icon-pencil" viewBox="0 0 512 512"><path d="M432 0c44.182 0 80 35.817 80 80 0 18.01-5.955 34.629-16 48l-32 32L352 48l32-32c13.371-10.045 29.989-16 48-16zM32 368L0 512l144-32 296-296L328 72 32 368zm325.789-186.211l-224 224-27.578-27.578 224-224 27.578 27.578z"/></symbol><symbol id="icon-phone" viewBox="0 0 1024 1024"><path d="M490.592 632.32c-.832-.576-97.088-162.4-97.408-164.48-19.904-43.488-35.968-87.968-2.496-107.712l-138.912-234.24c-36 26.912-137.824 172.96 52.768 503.936 200.768 348.8 391.84 334.304 430.144 310.688l-135.36-228.64c-32 18.816-58.944-12.192-108.736-79.552zm336.992 219.424l.032-.192S721.92 673.44 721.856 673.376c-8.384-14.112-26.4-18.56-40.448-10.368l-64.768 38.304 135.744 229.312s64.768-38.112 64.736-38.24h.128c14.88-8.832 18.304-27.072 10.336-40.64zM473.152 311.552v-.128c14.88-8.8 18.368-27.04 10.4-40.48l.064-.192S374.88 87.424 374.816 87.392c-8.352-14.176-26.432-18.56-40.416-10.368l-64.768 38.304 138.752 234.368s64.736-38.048 64.768-38.144z"/></symbol><symbol id="icon-plus" viewBox="0 0 73.17 73.17"><path d="M68.928 32.343H40.827v-28.1c0-2.34-1.899-4.243-4.242-4.243s-4.242 1.903-4.242 4.242v28.101H4.242A4.245 4.245 0 0 0 0 36.585a4.24 4.24 0 0 0 4.242 4.242h28.101v28.1c0 2.349 1.899 4.242 4.242 4.242s4.242-1.896 4.242-4.242v-28.1h28.101a4.24 4.24 0 0 0 4.242-4.242 4.244 4.244 0 0 0-4.242-4.242z" fill="#2b98d4"/></symbol><symbol id="icon-rocket" viewBox="0 0 423 448"><path d="M360 112c0-13.25-10.75-24-24-24s-24 10.75-24 24 10.75 24 24 24 24-10.75 24-24zm56-72c0 83-23 138.25-82.25 197.75-14.5 14.25-31 29-48.75 44l-5 94.75c-.25 2.5-1.75 5-4 6.5l-96 56c-1.25.75-2.5 1-4 1-2 0-4-.75-5.75-2.25l-16-16c-2-2.25-2.75-5.25-2-8l21.25-69-70.25-70.25-69 21.25c-.75.25-1.5.25-2.25.25-2 0-4.25-.75-5.75-2.25l-16-16C7.75 275 7.25 271 9 268l56-96c1.5-2.25 4-3.75 6.5-4l94.75-5c15-17.75 29.75-34.25 44-48.75C272.75 52 320.5 32 407.5 32c4.5 0 8.5 3.5 8.5 8z"/></symbol></svg>