<svg style="position: absolute; width: 0; height: 0; overflow: hidden;" version="1.1" xmlns="http://www.w3.org/2000/svg" xmlns:xlink="http://www.w3.org/1999/xlink">
<defs>
<symbol id="icon-eye" viewBox="0 0 32 32">
<title>eye</title>
<path class="path1" fill="#006df0" d="M16 6.463c-6.113 0-11.656 3.339-15.749 8.776-0.335 0.446-0.335 1.063 0 1.509 4.093 5.444 9.636 8.79 15.749 8.79s11.656-3.339 15.749-8.776c0.335-0.446 0.335-1.063 0-1.509-4.093-5.444-9.636-8.79-15.749-8.79zM16.439 22.717c-4.060 0.256-7.406-3.089-7.15-7.15 0.21-3.345 2.925-6.067 6.277-6.277 4.060-0.256 7.406 3.089 7.15 7.15-0.216 3.345-2.932 6.061-6.277 6.277z"></path>
<path class="path2" fill="#006df0" d="M16.236 19.614c-2.184 0.138-3.988-1.666-3.85-3.85 0.111-1.804 1.574-3.267 3.378-3.378 2.184-0.138 3.988 1.666 3.85 3.85-0.111 1.804-1.574 3.267-3.378 3.378z"></path>
</symbol>
<symbol id="icon-location" viewBox="0 0 32 32">
<title>location</title>
<path class="path1" d="M16 15.313q1.375 0 2.344-0.969t0.969-2.344-0.969-2.344-2.344-0.969-2.344 0.969-0.969 2.344 0.969 2.344 2.344 0.969zM16 2.688q3.875 0 6.594 2.719t2.719 6.594q0 1.938-0.969 4.438t-2.344 4.688-2.719 4.094-2.281 3.031l-1 1.063q-0.375-0.438-1-1.156t-2.25-2.875-2.844-4.188-2.219-4.594-1-4.5q0-3.875 2.719-6.594t6.594-2.719z"></path>
</symbol>
<symbol id="icon-vk" viewBox="0 0 32 32">
<title>vk</title>
<path class="path1" d="M28.73 9.333h-4.387c0 0 0 0 0 0-0.375 0-0.702 0.209-0.87 0.517s-1.752 3.228-2.314 4.313c-1.512 2.92-2.491 2.003-2.491 0.648v-4.673c0-0.813-0.659-1.472-1.472-1.472h-3.299c-0.059-0.005-0.127-0.007-0.196-0.007-0.876 0-1.653 0.426-2.134 1.083s1.67-0.263 1.67 1.994c0 0.56 0.029 2.17 0.055 3.52 0 0.007 0 0.016 0 0.024 0 0.537-0.435 0.973-0.973 0.973-0.288 0-0.546-0.125-0.724-0.323-1.273-1.75-2.391-3.745-3.262-5.868-0.22-0.511-0.539-0.728-0.909-0.728-0 0-0.001 0-0.001 0-0.951 0-2.855 0-3.986 0-0.001 0-0.003-0-0.005-0-0.374 0-0.677 0.303-0.677 0.677 0 0.085 0.016 0.166 0.044 0.24 1.209 3.315 6.423 13.749 12.374 13.749h2.505c0.547 0 0.99-0.443 0.99-0.99v-1.513c0-0.537 0.435-0.972 0.972-0.972 0.258 0 0.492 0.1 0.666 0.264l2.998 2.816c0.259 0.244 0.609 0.394 0.994 0.394h3.937c1.899 0 1.899-1.318 0.864-2.337-0.729-0.718-3.358-3.489-3.358-3.489-0.236-0.244-0.381-0.577-0.381-0.943 0-0.31 0.104-0.596 0.279-0.825 0.847-1.115 2.237-2.946 2.827-3.73 0.806-1.072 2.264-3.343 0.265-3.343z"></path>
</symbol>
<symbol id="icon-contact" viewBox="0 0 32 32">
<title>contact</title>
<path class="path1" d="M25.333 4h-1.333v-2.667h-2.667v2.667h-10.667v-2.667h-2.667v2.667h-1.333c-1.473 0-2.667 1.193-2.667 2.667v18.667c0 1.473 1.193 2.667 2.667 2.667h18.667c1.473 0 2.667-1.193 2.667-2.667v-18.667c0-1.473-1.193-2.667-2.667-2.667zM16 8c2.207 0 4 1.793 4 4 0 2.213-1.793 4-4 4s-4-1.787-4-4c0-2.207 1.793-4 4-4zM24 24h-16v-1.333c0-2.667 5.333-4.133 8-4.133s8 1.467 8 4.133v1.333z"></path>
</symbol>
<symbol id="icon-mail" viewBox="0 0 32 32">
<title>mail</title>
<path class="path1" d="M16 20q1.625 0 2.813-1.188t1.188-2.813-1.188-2.813-2.813-1.188-2.813 1.188-1.188 2.813 1.188 2.813 2.813 1.188zM16 2.688q5.5 0 9.406 3.906t3.906 9.406v1.938q0 2-1.344 3.375t-3.281 1.375q-2.438 0-3.938-2-2 2-4.75 2t-4.719-1.969-1.969-4.719 1.969-4.719 4.719-1.969 4.719 1.969 1.969 4.719v1.938q0 0.813 0.594 1.438t1.406 0.625 1.406-0.625 0.594-1.438v-1.938q0-4.375-3.156-7.531t-7.531-3.156-7.531 3.156-3.156 7.531 3.156 7.531 7.531 3.156h6.688v2.625h-6.688q-5.5 0-9.406-3.906t-3.906-9.406 3.906-9.406 9.406-3.906z"></path>
</symbol>
<symbol id="icon-phone" viewBox="0 0 32 32">
<title>phone</title>
<path class="path1" d="M8.813 14.375q3 5.813 8.813 8.813l2.938-2.938q0.625-0.625 1.375-0.313 2.25 0.75 4.75 0.75 0.563 0 0.938 0.375t0.375 0.938v4.688q0 0.563-0.375 0.938t-0.938 0.375q-9.375 0-16.031-6.656t-6.656-16.031q0-0.563 0.375-0.938t0.938-0.375h4.688q0.563 0 0.938 0.375t0.375 0.938q0 2.5 0.75 4.75 0.25 0.813-0.313 1.375z"></path>
</symbol>
<symbol id="icon-skype" viewBox="0 0 32 32">
<title>skype</title>
<path class="path1" d="M23.998 23.359c-0.706 0.987-1.748 1.766-3.102 2.319-1.338 0.549-2.941 0.829-4.768 0.829-2.192 0-4.030-0.38-5.466-1.131-1.026-0.545-1.87-1.284-2.512-2.2-0.649-0.92-0.976-1.834-0.976-2.719 0-0.549 0.215-1.027 0.636-1.419 0.418-0.39 0.954-0.584 1.593-0.584 0.523 0 0.976 0.154 1.343 0.46 0.352 0.295 0.653 0.731 0.896 1.289 0.271 0.612 0.565 1.128 0.875 1.53 0.301 0.393 0.732 0.721 1.281 0.979 0.553 0.256 1.3 0.39 2.216 0.39 1.262 0 2.297-0.267 3.074-0.79 0.762-0.51 1.131-1.126 1.131-1.879 0-0.592-0.194-1.059-0.589-1.426-0.418-0.382-0.965-0.679-1.629-0.887-0.694-0.212-1.635-0.443-2.8-0.684-1.586-0.334-2.931-0.729-4-1.18-1.095-0.458-1.978-1.094-2.623-1.89-0.655-0.81-0.988-1.825-0.988-3.018 0-1.135 0.348-2.161 1.037-3.044 0.681-0.877 1.678-1.563 2.963-2.029 1.266-0.462 2.771-0.696 4.478-0.696 1.362 0 2.561 0.156 3.561 0.464 1.006 0.308 1.853 0.723 2.519 1.237 0.672 0.519 1.172 1.070 1.485 1.645 0.316 0.581 0.478 1.157 0.478 1.716 0 0.538-0.211 1.027-0.627 1.452-0.418 0.43-0.947 0.647-1.567 0.647-0.564 0-1.009-0.137-1.313-0.404-0.286-0.251-0.583-0.64-0.913-1.196-0.38-0.712-0.841-1.274-1.37-1.671-0.514-0.386-1.37-0.579-2.55-0.579-1.091 0-1.983 0.215-2.643 0.643-0.636 0.41-0.946 0.883-0.946 1.443 0 0.341 0.1 0.629 0.307 0.873 0.214 0.263 0.521 0.49 0.909 0.682 0.401 0.198 0.815 0.358 1.229 0.469 0.423 0.117 1.134 0.289 2.111 0.512 1.236 0.26 2.371 0.554 3.373 0.872 1.018 0.319 1.895 0.712 2.613 1.174 0.73 0.469 1.308 1.070 1.72 1.79 0.412 0.725 0.621 1.616 0.621 2.652 0 1.239-0.361 2.369-1.069 3.357zM31.080 19.397c0.232-1.042 0.352-2.122 0.352-3.231 0-8.309-6.832-15.047-15.262-15.047-0.888 0-1.759 0.076-2.61 0.221-1.364-0.848-2.979-1.339-4.707-1.339-4.89 0-8.852 3.906-8.852 8.729 0 1.61 0.444 3.116 1.216 4.414-0.201 0.976-0.308 1.988-0.308 3.023 0 8.313 6.833 15.050 15.263 15.050 0.956 0 1.889-0.087 2.796-0.252 1.247 0.66 2.67 1.037 4.184 1.037 4.888 0 8.851-3.908 8.851-8.727 0-1.393-0.331-2.708-0.92-3.877z"></path>
</symbol>
<symbol id="icon-student" viewBox="0 0 32 32">
<title>student</title>
<path class="path1" d="M16 4l-14.667 8 14.667 8 14.667-8z"></path>
<path class="path2" d="M25.333 17.067l-9.333 5.6-9.333-5.6v5.867l9.333 5.067 9.333-5.067z"></path>
<path class="path3" d="M28 12h2.667v10.667h-2.667v-10.667z"></path>
</symbol>
</defs>
</svg>
